<mxfile host="app.diagrams.net" agent="Mozilla/5.0 (Windows NT 10.0; Win64; x64; rv:136.0) Gecko/20100101 Firefox/136.0" version="26.0.16">
  <diagram id="C5RBs43oDa-KdzZeNtuy" name="Page-1">
    <mxGraphModel dx="1032" dy="615" grid="1" gridSize="10" guides="1" tooltips="1" connect="1" arrows="1" fold="1" page="1" pageScale="1" pageWidth="827" pageHeight="1169" math="0" shadow="0">
      <root>
        <mxCell id="WIyWlLk6GJQsqaUBKTNV-0" />
        <mxCell id="WIyWlLk6GJQsqaUBKTNV-1" parent="WIyWlLk6GJQsqaUBKTNV-0" />
        <mxCell id="YAjc6xp48cVj9kwRxga4-76" value="&lt;div&gt;User&lt;/div&gt;" style="swimlane;childLayout=stackLayout;horizontal=1;startSize=50;horizontalStack=0;rounded=1;fontSize=14;fontStyle=0;strokeWidth=2;resizeParent=0;resizeLast=1;shadow=0;dashed=0;align=center;arcSize=4;whiteSpace=wrap;html=1;" vertex="1" parent="WIyWlLk6GJQsqaUBKTNV-1">
          <mxGeometry x="224" y="240" width="160" height="160" as="geometry" />
        </mxCell>
        <mxCell id="YAjc6xp48cVj9kwRxga4-77" value="&lt;div&gt;+ uid (pk): integer&lt;/div&gt;&lt;div&gt;+ display_name: string&lt;/div&gt;&lt;div&gt;+ first_name: string&lt;br&gt;+ last_name: string&lt;/div&gt;&lt;div&gt;+ email: string&lt;/div&gt;&lt;div&gt;+ phone_number: string&lt;/div&gt;" style="align=left;strokeColor=none;fillColor=none;spacingLeft=4;spacingRight=4;fontSize=12;verticalAlign=top;resizable=0;rotatable=0;part=1;html=1;whiteSpace=wrap;" vertex="1" parent="YAjc6xp48cVj9kwRxga4-76">
          <mxGeometry y="50" width="160" height="110" as="geometry" />
        </mxCell>
        <mxCell id="YAjc6xp48cVj9kwRxga4-87" value="Post" style="swimlane;childLayout=stackLayout;horizontal=1;startSize=50;horizontalStack=0;rounded=1;fontSize=14;fontStyle=0;strokeWidth=2;resizeParent=0;resizeLast=1;shadow=0;dashed=0;align=center;arcSize=4;whiteSpace=wrap;html=1;" vertex="1" parent="WIyWlLk6GJQsqaUBKTNV-1">
          <mxGeometry x="224" y="480" width="160" height="160" as="geometry" />
        </mxCell>
        <mxCell id="YAjc6xp48cVj9kwRxga4-88" value="&lt;div&gt;+ uid (&lt;b&gt;pk&lt;/b&gt;): integer&lt;/div&gt;&lt;div&gt;+ author (&lt;i&gt;fk&lt;/i&gt;): integer&lt;/div&gt;&lt;div&gt;+ image (&lt;i&gt;fk&lt;/i&gt;): integer&lt;/div&gt;&lt;div&gt;+ post_title: string&lt;/div&gt;&lt;div&gt;+ post_content: string&lt;/div&gt;&lt;div&gt;+ isDeleted: boolean&lt;/div&gt;&lt;div&gt;+ created_at: date_time&lt;/div&gt;" style="align=left;strokeColor=none;fillColor=none;spacingLeft=4;spacingRight=4;fontSize=12;verticalAlign=top;resizable=0;rotatable=0;part=1;html=1;whiteSpace=wrap;" vertex="1" parent="YAjc6xp48cVj9kwRxga4-87">
          <mxGeometry y="50" width="160" height="110" as="geometry" />
        </mxCell>
        <mxCell id="YAjc6xp48cVj9kwRxga4-89" value="Image" style="swimlane;childLayout=stackLayout;horizontal=1;startSize=50;horizontalStack=0;rounded=1;fontSize=14;fontStyle=0;strokeWidth=2;resizeParent=0;resizeLast=1;shadow=0;dashed=0;align=center;arcSize=4;whiteSpace=wrap;html=1;" vertex="1" parent="WIyWlLk6GJQsqaUBKTNV-1">
          <mxGeometry x="424" y="480" width="160" height="150" as="geometry" />
        </mxCell>
        <mxCell id="YAjc6xp48cVj9kwRxga4-90" value="&lt;div&gt;+ uid (&lt;b&gt;pk&lt;/b&gt;): integer&lt;/div&gt;&lt;div&gt;+ url: string&lt;/div&gt;&lt;div&gt;+ total_points: integer&lt;/div&gt;" style="align=left;strokeColor=none;fillColor=none;spacingLeft=4;spacingRight=4;fontSize=12;verticalAlign=top;resizable=0;rotatable=0;part=1;html=1;whiteSpace=wrap;" vertex="1" parent="YAjc6xp48cVj9kwRxga4-89">
          <mxGeometry y="50" width="160" height="100" as="geometry" />
        </mxCell>
        <mxCell id="YAjc6xp48cVj9kwRxga4-91" value="Like" style="swimlane;childLayout=stackLayout;horizontal=1;startSize=50;horizontalStack=0;rounded=1;fontSize=14;fontStyle=0;strokeWidth=2;resizeParent=0;resizeLast=1;shadow=0;dashed=0;align=center;arcSize=4;whiteSpace=wrap;html=1;" vertex="1" parent="WIyWlLk6GJQsqaUBKTNV-1">
          <mxGeometry x="430" y="715" width="160" height="145" as="geometry" />
        </mxCell>
        <mxCell id="YAjc6xp48cVj9kwRxga4-92" value="&lt;div&gt;+ uid (&lt;b&gt;pk&lt;/b&gt;): integer&lt;/div&gt;&lt;div&gt;+ user (fk): integer&lt;/div&gt;&lt;div&gt;+ comment (fk): integer&lt;/div&gt;&lt;div&gt;+ post (fk): integer&lt;/div&gt;+ isLiked: boolean&lt;br&gt;+ created_at: date_time" style="align=left;strokeColor=none;fillColor=none;spacingLeft=4;spacingRight=4;fontSize=12;verticalAlign=top;resizable=0;rotatable=0;part=1;html=1;whiteSpace=wrap;" vertex="1" parent="YAjc6xp48cVj9kwRxga4-91">
          <mxGeometry y="50" width="160" height="95" as="geometry" />
        </mxCell>
        <mxCell id="YAjc6xp48cVj9kwRxga4-93" value="&lt;div&gt;Comment&lt;/div&gt;" style="swimlane;childLayout=stackLayout;horizontal=1;startSize=50;horizontalStack=0;rounded=1;fontSize=14;fontStyle=0;strokeWidth=2;resizeParent=0;resizeLast=1;shadow=0;dashed=0;align=center;arcSize=4;whiteSpace=wrap;html=1;" vertex="1" parent="WIyWlLk6GJQsqaUBKTNV-1">
          <mxGeometry x="224" y="715" width="160" height="145" as="geometry" />
        </mxCell>
        <mxCell id="YAjc6xp48cVj9kwRxga4-94" value="&lt;div&gt;+ uid (&lt;b&gt;pk&lt;/b&gt;): integer&lt;/div&gt;&lt;div&gt;+ author (&lt;i&gt;fk&lt;/i&gt;): integer&lt;/div&gt;&lt;div&gt;+ post (&lt;i&gt;fk&lt;/i&gt;): integer&lt;/div&gt;&lt;div&gt;+ comment_content: string&lt;/div&gt;&lt;div&gt;+ created_at: date_time&lt;/div&gt;&lt;div&gt;+ isDeleted: boolean&lt;/div&gt;" style="align=left;strokeColor=none;fillColor=none;spacingLeft=4;spacingRight=4;fontSize=12;verticalAlign=top;resizable=0;rotatable=0;part=1;html=1;whiteSpace=wrap;" vertex="1" parent="YAjc6xp48cVj9kwRxga4-93">
          <mxGeometry y="50" width="160" height="95" as="geometry" />
        </mxCell>
        <mxCell id="YAjc6xp48cVj9kwRxga4-97" value="Achievement&lt;span style=&quot;white-space: pre;&quot;&gt;&#x9;&lt;/span&gt;" style="swimlane;childLayout=stackLayout;horizontal=1;startSize=50;horizontalStack=0;rounded=1;fontSize=14;fontStyle=0;strokeWidth=2;resizeParent=0;resizeLast=1;shadow=0;dashed=0;align=center;arcSize=4;whiteSpace=wrap;html=1;" vertex="1" parent="WIyWlLk6GJQsqaUBKTNV-1">
          <mxGeometry x="24" y="715" width="170" height="150" as="geometry" />
        </mxCell>
        <mxCell id="YAjc6xp48cVj9kwRxga4-98" value="&lt;div&gt;+ uid (&lt;b&gt;pk&lt;/b&gt;): integer&lt;/div&gt;&lt;div&gt;+ user (fk): integer&lt;/div&gt;&lt;div&gt;+ achievement_name: string&lt;br&gt;+ achievement_details: string&lt;/div&gt;&lt;div&gt;+ isAchieved: boolean&lt;/div&gt;&lt;div&gt;+ date_achieved: date_time&lt;/div&gt;" style="align=left;strokeColor=none;fillColor=none;spacingLeft=4;spacingRight=4;fontSize=12;verticalAlign=top;resizable=0;rotatable=0;part=1;html=1;whiteSpace=wrap;" vertex="1" parent="YAjc6xp48cVj9kwRxga4-97">
          <mxGeometry y="50" width="170" height="100" as="geometry" />
        </mxCell>
        <mxCell id="YAjc6xp48cVj9kwRxga4-101" value="Voucher" style="swimlane;childLayout=stackLayout;horizontal=1;startSize=50;horizontalStack=0;rounded=1;fontSize=14;fontStyle=0;strokeWidth=2;resizeParent=0;resizeLast=1;shadow=0;dashed=0;align=center;arcSize=4;whiteSpace=wrap;html=1;" vertex="1" parent="WIyWlLk6GJQsqaUBKTNV-1">
          <mxGeometry x="224" y="40" width="160" height="120" as="geometry" />
        </mxCell>
        <mxCell id="YAjc6xp48cVj9kwRxga4-102" value="&lt;div&gt;+ uid (&lt;b&gt;pk&lt;/b&gt;): integer&lt;/div&gt;&lt;div&gt;+ company: string&lt;/div&gt;&lt;div&gt;+ voucher_details: string&lt;/div&gt;+ validity: date_time" style="align=left;strokeColor=none;fillColor=none;spacingLeft=4;spacingRight=4;fontSize=12;verticalAlign=top;resizable=0;rotatable=0;part=1;html=1;whiteSpace=wrap;" vertex="1" parent="YAjc6xp48cVj9kwRxga4-101">
          <mxGeometry y="50" width="160" height="70" as="geometry" />
        </mxCell>
        <mxCell id="YAjc6xp48cVj9kwRxga4-103" value="UserFriends" style="swimlane;childLayout=stackLayout;horizontal=1;startSize=50;horizontalStack=0;rounded=1;fontSize=14;fontStyle=0;strokeWidth=2;resizeParent=0;resizeLast=1;shadow=0;dashed=0;align=center;arcSize=4;whiteSpace=wrap;html=1;" vertex="1" parent="WIyWlLk6GJQsqaUBKTNV-1">
          <mxGeometry x="424" y="240" width="160" height="110" as="geometry" />
        </mxCell>
        <mxCell id="YAjc6xp48cVj9kwRxga4-104" value="&lt;div&gt;+ user1_uid (&lt;b&gt;pk&lt;/b&gt;): integer&lt;/div&gt;&lt;div&gt;+ user2_uid (&lt;b&gt;pk&lt;/b&gt;): integer&lt;/div&gt;&lt;div&gt;+ created_at: date_time&lt;/div&gt;" style="align=left;strokeColor=none;fillColor=none;spacingLeft=4;spacingRight=4;fontSize=12;verticalAlign=top;resizable=0;rotatable=0;part=1;html=1;whiteSpace=wrap;" vertex="1" parent="YAjc6xp48cVj9kwRxga4-103">
          <mxGeometry y="50" width="160" height="60" as="geometry" />
        </mxCell>
        <mxCell id="YAjc6xp48cVj9kwRxga4-107" value="Waste" style="swimlane;childLayout=stackLayout;horizontal=1;startSize=50;horizontalStack=0;rounded=1;fontSize=14;fontStyle=0;strokeWidth=2;resizeParent=0;resizeLast=1;shadow=0;dashed=0;align=center;arcSize=4;whiteSpace=wrap;html=1;" vertex="1" parent="WIyWlLk6GJQsqaUBKTNV-1">
          <mxGeometry x="644" y="480" width="160" height="120" as="geometry" />
        </mxCell>
        <mxCell id="YAjc6xp48cVj9kwRxga4-108" value="&lt;div&gt;+ uid (&lt;b&gt;pk&lt;/b&gt;): integer&lt;/div&gt;&lt;div&gt;+ image_id (&lt;i&gt;fk&lt;/i&gt;): integer&lt;/div&gt;&lt;div&gt;+ object_name: string&lt;br&gt;+ points: integer&lt;/div&gt;" style="align=left;strokeColor=none;fillColor=none;spacingLeft=4;spacingRight=4;fontSize=12;verticalAlign=top;resizable=0;rotatable=0;part=1;html=1;whiteSpace=wrap;" vertex="1" parent="YAjc6xp48cVj9kwRxga4-107">
          <mxGeometry y="50" width="160" height="70" as="geometry" />
        </mxCell>
        <mxCell id="YAjc6xp48cVj9kwRxga4-114" value="" style="fontSize=12;html=1;endArrow=ERzeroToMany;startArrow=ERmandOne;rounded=0;exitX=0.5;exitY=1;exitDx=0;exitDy=0;entryX=0.5;entryY=0;entryDx=0;entryDy=0;" edge="1" parent="WIyWlLk6GJQsqaUBKTNV-1" source="YAjc6xp48cVj9kwRxga4-77" target="YAjc6xp48cVj9kwRxga4-87">
          <mxGeometry width="100" height="100" relative="1" as="geometry">
            <mxPoint x="374" y="470" as="sourcePoint" />
            <mxPoint x="474" y="370" as="targetPoint" />
          </mxGeometry>
        </mxCell>
        <mxCell id="YAjc6xp48cVj9kwRxga4-118" value="" style="fontSize=12;html=1;endArrow=ERoneToMany;startArrow=ERmandOne;rounded=0;entryX=-0.001;entryY=0.361;entryDx=0;entryDy=0;exitX=1;exitY=0.25;exitDx=0;exitDy=0;entryPerimeter=0;" edge="1" parent="WIyWlLk6GJQsqaUBKTNV-1">
          <mxGeometry width="100" height="100" relative="1" as="geometry">
            <mxPoint x="584" y="570" as="sourcePoint" />
            <mxPoint x="643.8399999999999" y="570.27" as="targetPoint" />
          </mxGeometry>
        </mxCell>
        <mxCell id="YAjc6xp48cVj9kwRxga4-121" value="" style="edgeStyle=orthogonalEdgeStyle;fontSize=12;html=1;endArrow=ERoneToMany;startArrow=ERmandOne;rounded=0;exitX=0;exitY=0.5;exitDx=0;exitDy=0;" edge="1" parent="WIyWlLk6GJQsqaUBKTNV-1" source="YAjc6xp48cVj9kwRxga4-77" target="YAjc6xp48cVj9kwRxga4-97">
          <mxGeometry width="100" height="100" relative="1" as="geometry">
            <mxPoint x="29" y="540" as="sourcePoint" />
            <mxPoint x="129" y="440" as="targetPoint" />
          </mxGeometry>
        </mxCell>
        <mxCell id="YAjc6xp48cVj9kwRxga4-126" value="" style="fontSize=12;html=1;endArrow=ERoneToMany;startArrow=ERmandOne;rounded=0;entryX=0;entryY=0.5;entryDx=0;entryDy=0;exitX=1;exitY=0.5;exitDx=0;exitDy=0;" edge="1" parent="WIyWlLk6GJQsqaUBKTNV-1">
          <mxGeometry width="100" height="100" relative="1" as="geometry">
            <mxPoint x="384.0000000000001" y="570" as="sourcePoint" />
            <mxPoint x="424" y="570" as="targetPoint" />
          </mxGeometry>
        </mxCell>
        <mxCell id="YAjc6xp48cVj9kwRxga4-127" value="" style="fontSize=12;html=1;endArrow=ERzeroToMany;startArrow=ERmandOne;rounded=0;exitX=0.5;exitY=1;exitDx=0;exitDy=0;entryX=0.5;entryY=0;entryDx=0;entryDy=0;" edge="1" parent="WIyWlLk6GJQsqaUBKTNV-1" source="YAjc6xp48cVj9kwRxga4-88" target="YAjc6xp48cVj9kwRxga4-93">
          <mxGeometry width="100" height="100" relative="1" as="geometry">
            <mxPoint x="310" y="650" as="sourcePoint" />
            <mxPoint x="390" y="640" as="targetPoint" />
          </mxGeometry>
        </mxCell>
        <mxCell id="YAjc6xp48cVj9kwRxga4-136" value="" style="fontSize=12;html=1;endArrow=ERzeroToOne;endFill=1;rounded=0;entryX=0;entryY=0.25;entryDx=0;entryDy=0;exitX=1;exitY=0.25;exitDx=0;exitDy=0;" edge="1" parent="WIyWlLk6GJQsqaUBKTNV-1" source="YAjc6xp48cVj9kwRxga4-94" target="YAjc6xp48cVj9kwRxga4-92">
          <mxGeometry width="100" height="100" relative="1" as="geometry">
            <mxPoint x="380" y="830" as="sourcePoint" />
            <mxPoint x="480" y="730" as="targetPoint" />
          </mxGeometry>
        </mxCell>
        <mxCell id="YAjc6xp48cVj9kwRxga4-138" value="" style="endArrow=none;html=1;rounded=0;exitX=0.996;exitY=-0.001;exitDx=0;exitDy=0;exitPerimeter=0;entryX=0;entryY=0;entryDx=0;entryDy=0;" edge="1" parent="WIyWlLk6GJQsqaUBKTNV-1">
          <mxGeometry relative="1" as="geometry">
            <mxPoint x="384.0000000000001" y="319.86" as="sourcePoint" />
            <mxPoint x="424.64" y="319.97" as="targetPoint" />
          </mxGeometry>
        </mxCell>
        <mxCell id="YAjc6xp48cVj9kwRxga4-139" value="" style="fontSize=12;html=1;endArrow=ERmandOne;startArrow=ERmandOne;rounded=0;exitX=0.75;exitY=1;exitDx=0;exitDy=0;entryX=0.5;entryY=0;entryDx=0;entryDy=0;edgeStyle=orthogonalEdgeStyle;" edge="1" parent="WIyWlLk6GJQsqaUBKTNV-1" source="YAjc6xp48cVj9kwRxga4-88" target="YAjc6xp48cVj9kwRxga4-91">
          <mxGeometry width="100" height="100" relative="1" as="geometry">
            <mxPoint x="400" y="700" as="sourcePoint" />
            <mxPoint x="500" y="600" as="targetPoint" />
          </mxGeometry>
        </mxCell>
        <mxCell id="YAjc6xp48cVj9kwRxga4-140" value="" style="fontSize=12;html=1;endArrow=ERzeroToMany;endFill=1;rounded=0;entryX=0.5;entryY=1;entryDx=0;entryDy=0;exitX=0.5;exitY=0;exitDx=0;exitDy=0;" edge="1" parent="WIyWlLk6GJQsqaUBKTNV-1" source="YAjc6xp48cVj9kwRxga4-76" target="YAjc6xp48cVj9kwRxga4-102">
          <mxGeometry width="100" height="100" relative="1" as="geometry">
            <mxPoint x="270" y="200" as="sourcePoint" />
            <mxPoint x="370" y="100" as="targetPoint" />
          </mxGeometry>
        </mxCell>
      </root>
    </mxGraphModel>
  </diagram>
</mxfile>
